Ghost Town 2008 720p BRRip H264 AAC-Rx(Phoenix-RG).mp4
      Format : MPEG-4 / AVC
      File size : 1.52 GiB
      Duration : 1h 42mn
      Bit rate : 1 800 Kbps
      Maximum bit rate : 9 308 Kbps
      Width : 1 280 pixels
      Height : 720 pixels
      Display aspect ratio : 16/9
      Frame rate mode : Constant
      Frame rate : 23.976 fps
      Resolution : 24 bits
      Colorimetry : 4:2:0
      Scan type : Progressive
      Bits/(Pixel*Frame) : 0.081
      Stream size : 1.28 GiB (85%)
     
    
AUDIO:
      Format : AAC / LC
      Duration : 1h 42mn
      Bit rate mode : Variable
      Bit rate : 320 Kbps
      Maximum bit rate : 447 Kbps
      Channel(s) : 6 channels
      Channel positions : Front: L C R, Rear: L R, LFE
      Sampling rate : 48.0 KHz
      Resolution : 16 bits
      Stream size : 234 MiB (15%)